<?xml version="1.0" encoding="UTF-8" standalone="no"?>
<svg
   preserveAspectRatio="xMidYMid"
   width="293.81363"
   height="128.6006"
   viewBox="0 0 300.97705 131.73561"
   version="1.1"
   id="svg14"
   xmlns="http://www.w3.org/2000/svg"
   xmlns:svg="http://www.w3.org/2000/svg">
  <defs
     id="defs4">
    <style
       id="style2">
      .cls-1, .cls-4 {
        fill: red;
      }

      .cls-1, .cls-2, .cls-3, .cls-4 {
        fill-rule: evenodd;
      }

      .cls-2 {
        fill: #666;
      }

      .cls-3 {
        fill: #fff;
      }

      .cls-3, .cls-4 {
        stroke: #282828;
        stroke-linejoin: round;
        stroke-width: 1px;
      }
    </style>
  </defs>
  <path
     d="m 44.490987,116.43974 v -14.15 h 57.058003 v 14.15 z M 0.49998694,81.17774 37.587987,59.38074 0.49998694,38.26974 8.4879869,25.31674 53.107987,52.93374 v 12.895 l -44.4490001,27.616 z"
     class="cls-3"
     id="path10" />
  <path
     d="m 300.35399,52.72474 c -0.187,2.458 -0.465,4.892 -0.834,7.302 l -3.06,18.08 c -0.556,3.153 -1.46,6.307 -2.712,9.458 -1.252,3.153 -3.038,6.004 -5.355,8.553 -2.318,2.551 -5.1,4.475 -8.345,5.772 -3.246,1.297 -6.491,1.947 -9.735,1.947 -1.856,0 -3.71,-0.256 -5.563,-0.765 -1.856,-0.508 -3.432,-1.367 -4.729,-2.573 -1.3,-1.204 -2.365,-2.642 -3.199,-4.311 -0.835,-1.669 -1.484,-3.384 -1.947,-5.146 l -6.676,40.194 h -19.471 l 16.828,-102.224 h 19.611 l -1.53,9.318 c 1.113,-1.575 2.386,-3.06 3.825,-4.45 1.436,-1.391 3.012,-2.55 4.728,-3.477 1.715,-0.926 3.523,-1.576 5.425,-1.948 1.899,-0.369 3.776,-0.556 5.632,-0.556 2.41,0 4.705,0.417 6.885,1.252 2.177,0.834 3.985,2.11 5.424,3.825 1.436,1.716 2.525,3.663 3.268,5.841 0.741,2.18 1.228,4.429 1.461,6.745 0.23,2.319 0.254,4.707 0.069,7.163 z m -20.653,-4.451 c -0.604,-1.343 -1.578,-2.386 -2.921,-3.129 -1.345,-0.741 -2.805,-1.113 -4.381,-1.113 -1.391,0 -2.76,0.209 -4.103,0.626 -1.345,0.418 -2.551,1.113 -3.616,2.087 -1.067,0.973 -1.878,2.11 -2.434,3.407 -0.556,1.3 -0.973,2.597 -1.252,3.894 l -2.92,18.081 c -0.187,1.112 -0.348,2.249 -0.487,3.407 -0.139,1.161 -0.163,2.273 -0.07,3.338 0.092,1.067 0.255,2.134 0.487,3.199 0.23,1.067 0.626,2.041 1.182,2.921 0.557,0.882 1.343,1.554 2.365,2.016 1.019,0.465 2.086,0.696 3.199,0.696 1.575,0 3.129,-0.3 4.659,-0.904 1.53,-0.602 2.873,-1.506 4.033,-2.712 1.158,-1.204 2.039,-2.573 2.643,-4.103 0.602,-1.53 1.043,-3.036 1.321,-4.52 l 2.921,-18.081 c 0.278,-1.575 0.393,-3.151 0.347,-4.729 -0.047,-1.575 -0.371,-3.035 -0.973,-4.381 z m -54.033,38.317 v 16.134 h -48.678 v -16.134 h 16.689 l 11.544,-69.957 h -12.517 V 0.49974008 h 34.77 L 213.15099,86.59074 Z m -79.137,16.134 1.53,-9.458 c -1.022,1.669 -2.273,3.177 -3.755,4.52 -1.485,1.345 -3.084,2.482 -4.799,3.408 -1.716,0.928 -3.525,1.599 -5.424,2.016 -1.901,0.418 -3.779,0.626 -5.633,0.626 -2.412,0 -4.707,-0.417 -6.884,-1.252 -2.18,-0.834 -3.988,-2.107 -5.424,-3.824 -1.439,-1.715 -2.528,-3.686 -3.269,-5.911 -0.743,-2.225 -1.23,-4.496 -1.46,-6.815 -0.233,-2.317 -0.256,-4.681 -0.07,-7.093 0.185,-2.41 0.509,-4.82 0.974,-7.232 l 2.921,-18.081 c 0.556,-3.244 1.46,-6.443 2.712,-9.597 1.251,-3.151 3.06,-5.98 5.424,-8.483 2.364,-2.504 5.146,-4.403 8.345,-5.703 3.199,-1.297 6.419,-1.947 9.666,-1.947 1.947,0 3.825,0.257 5.633,0.765 1.808,0.511 3.383,1.369 4.728,2.573 1.343,1.206 2.434,2.643 3.269,4.312 0.834,1.669 1.436,3.385 1.808,5.146 l 6.676,-40.19499992 h 19.471 L 166.14099,102.72474 Z m 7.719,-49.93 c -0.048,-1.113 -0.209,-2.202 -0.487,-3.269 -0.278,-1.065 -0.695,-2.017 -1.252,-2.851 -0.556,-0.834 -1.345,-1.482 -2.364,-1.947 -1.021,-0.463 -2.086,-0.696 -3.199,-0.696 -1.578,0 -3.129,0.303 -4.659,0.904 -1.53,0.605 -2.875,1.509 -4.033,2.713 -1.161,1.206 -2.041,2.551 -2.643,4.033 -0.604,1.484 -0.997,3.014 -1.182,4.59 l -3.06,18.08 c -0.278,1.578 -0.395,3.153 -0.348,4.729 0.046,1.578 0.37,3.038 0.974,4.381 0.602,1.345 1.575,2.388 2.921,3.129 1.343,0.743 2.803,1.113 4.381,1.113 1.39,0 2.757,-0.209 4.103,-0.626 1.343,-0.417 2.549,-1.113 3.616,-2.086 1.064,-0.974 1.899,-2.108 2.503,-3.408 0.602,-1.297 0.995,-2.594 1.182,-3.894 l 3.06,-18.08 c 0.185,-1.113 0.324,-2.248 0.417,-3.408 0.092,-1.158 0.115,-2.295 0.07,-3.407 z"
     class="cls-4"
     id="path12" />
</svg>
