<?xml version="1.0" encoding="UTF-8"?>
<svg id="Layer_1" data-name="Layer 1" xmlns="http://www.w3.org/2000/svg" xmlns:xlink="http://www.w3.org/1999/xlink" viewBox="0 0 1142.23 1001.31">
  <defs>
    <style>
      .cls-1 {
        fill: url(#linear-gradient-2);
      }

      .cls-2 {
        fill: none;
      }

      .cls-3 {
        fill: url(#linear-gradient-3);
      }

      .cls-4 {
        clip-path: url(#clippath-1);
      }

      .cls-5 {
        filter: url(#drop-shadow-1);
      }

      .cls-5, .cls-6 {
        fill: #0bd92a;
      }

      .cls-7 {
        fill: url(#linear-gradient);
      }

      .cls-6 {
        filter: url(#drop-shadow-2);
      }

      .cls-8 {
        clip-path: url(#clippath);
      }
    </style>
    <linearGradient id="linear-gradient" x1="350.25" y1="655.37" x2="1071.42" y2="655.37" gradientUnits="userSpaceOnUse">
      <stop offset="0" stop-color="#0bd92a"/>
      <stop offset="1" stop-color="#0b982a"/>
    </linearGradient>
    <clipPath id="clippath">
      <path class="cls-2" d="M570.76,1001.31c-59.61,0-117.96-10.39-173.44-30.88-37.3-13.77-56.37-55.18-42.59-92.47,13.77-37.3,55.17-56.37,92.47-42.59,39.46,14.57,81.03,21.96,123.56,21.96,196.67,0,356.67-160,356.67-356.67,0-33.77-4.7-67.15-13.96-99.22-11.04-38.2,10.98-78.11,49.18-89.14,38.19-11.04,78.11,10.98,89.14,49.18,13.02,45.06,19.62,91.89,19.62,139.19,0,67.56-13.25,133.13-39.37,194.9-25.22,59.63-61.31,113.16-107.26,159.12-45.96,45.96-99.49,82.04-159.12,107.26-61.77,26.13-127.34,39.37-194.9,39.37Z"/>
    </clipPath>
    <filter id="drop-shadow-1" x="823.23" y="221.99" width="319" height="319" filterUnits="userSpaceOnUse">
      <feOffset dx="0" dy="0"/>
      <feGaussianBlur result="blur" stdDeviation="28.87"/>
      <feFlood flood-color="#000" flood-opacity=".75"/>
      <feComposite in2="blur" operator="in"/>
      <feComposite in="SourceGraphic"/>
    </filter>
    <linearGradient id="linear-gradient-2" x1="70.11" y1="347.11" x2="777.94" y2="347.11" gradientUnits="userSpaceOnUse">
      <stop offset="0" stop-color="#0b982a"/>
      <stop offset="1" stop-color="#0bd92a"/>
    </linearGradient>
    <clipPath id="clippath-1">
      <path class="cls-2" d="M159.55,694.21c-31.09,0-59.77-20.3-69.01-51.63-13.55-45.91-20.42-93.66-20.42-141.93,0-67.56,13.25-133.13,39.37-194.9,25.22-59.63,61.31-113.16,107.26-159.12,45.96-45.96,99.49-82.04,159.12-107.26C437.63,13.25,503.21,0,570.76,0c53.95,0,107.06,8.55,157.85,25.41,37.73,12.53,58.17,53.27,45.64,91.01-12.53,37.73-53.28,58.16-91.01,45.64-36.13-12-73.97-18.08-112.48-18.08-196.67,0-356.67,160-356.67,356.67,0,34.46,4.89,68.5,14.53,101.17,11.26,38.13-10.53,78.17-48.67,89.43-6.8,2.01-13.66,2.96-20.41,2.96Z"/>
    </clipPath>
    <filter id="drop-shadow-2" x="0" y="462.76" width="319" height="319" filterUnits="userSpaceOnUse">
      <feOffset dx="0" dy="0"/>
      <feGaussianBlur result="blur-2" stdDeviation="28.95"/>
      <feFlood flood-color="#000" flood-opacity=".75"/>
      <feComposite in2="blur-2" operator="in"/>
      <feComposite in="SourceGraphic"/>
    </filter>
    <linearGradient id="linear-gradient-3" x1="579.11" y1="258.62" x2="579.11" y2="742.23" gradientUnits="userSpaceOnUse">
      <stop offset="0" stop-color="#de00ff"/>
      <stop offset=".1" stop-color="#d608ff"/>
      <stop offset=".26" stop-color="#c21fff"/>
      <stop offset=".47" stop-color="#a245ff"/>
      <stop offset=".7" stop-color="#757aff"/>
      <stop offset=".96" stop-color="#3bbcff"/>
      <stop offset="1" stop-color="#33c7ff"/>
    </linearGradient>
  </defs>
  <path class="cls-7" d="M570.76,1001.31c-59.61,0-117.96-10.39-173.44-30.88-37.3-13.77-56.37-55.18-42.59-92.47,13.77-37.3,55.17-56.37,92.47-42.59,39.46,14.57,81.03,21.96,123.56,21.96,196.67,0,356.67-160,356.67-356.67,0-33.77-4.7-67.15-13.96-99.22-11.04-38.2,10.98-78.11,49.18-89.14,38.19-11.04,78.11,10.98,89.14,49.18,13.02,45.06,19.62,91.89,19.62,139.19,0,67.56-13.25,133.13-39.37,194.9-25.22,59.63-61.31,113.16-107.26,159.12-45.96,45.96-99.49,82.04-159.12,107.26-61.77,26.13-127.34,39.37-194.9,39.37Z"/>
  <g class="cls-8">
    <circle class="cls-5" cx="982.54" cy="381.45" r="71.99"/>
  </g>
  <path class="cls-1" d="M159.55,694.21c-31.09,0-59.77-20.3-69.01-51.63-13.55-45.91-20.42-93.66-20.42-141.93,0-67.56,13.25-133.13,39.37-194.9,25.22-59.63,61.31-113.16,107.26-159.12,45.96-45.96,99.49-82.04,159.12-107.26C437.63,13.25,503.21,0,570.76,0c53.95,0,107.06,8.55,157.85,25.41,37.73,12.53,58.17,53.27,45.64,91.01-12.53,37.73-53.28,58.16-91.01,45.64-36.13-12-73.97-18.08-112.48-18.08-196.67,0-356.67,160-356.67,356.67,0,34.46,4.89,68.5,14.53,101.17,11.26,38.13-10.53,78.17-48.67,89.43-6.8,2.01-13.66,2.96-20.41,2.96Z"/>
  <g class="cls-4">
    <circle class="cls-6" cx="159.62" cy="622.2" r="72.19"/>
  </g>
  <path class="cls-3" d="M498.75,453.25h-131.83c-24.25,0-37.67,28.1-22.43,46.97l179.66,220.6c22.6,27.98,65.03,28.64,88.49,1.38l200.53-221.29c16.09-18.7,2.81-47.66-21.86-47.66h-151.33v-134.24c0-18.07-25.68-60.39-69.94-60.39-50.85,0-70.82,43.27-70.82,60.39s-.48,134.24-.48,134.24Z"/>
</svg>